<svg xmlns="http://www.w3.org/2000/svg" viewBox="0 0 512 512" width="512" height="512" role="img" aria-label="Ko mascot, celebrate expression">
  <!--
    Ko mascot — celebrate
    Eyes become stars. Two tiny amber sparkles above head.
  -->
  <path
    d="M 256 56
       C 360 56 432 144 432 256
       C 432 360 360 440 256 440
       C 152 440 80 360 80 256
       C 80 144 152 56 256 56 Z"
    fill="#2A6F97"
  />
  <circle cx="332" cy="312" r="22" fill="#F4A261" />
  <!-- Star eyes -->
  <path d="M 208 232 L 214 244 L 226 246 L 217 254 L 219 266 L 208 260 L 197 266 L 199 254 L 190 246 L 202 244 Z"
        fill="#FFFFFF" />
  <path d="M 304 232 L 310 244 L 322 246 L 313 254 L 315 266 L 304 260 L 293 266 L 295 254 L 286 246 L 298 244 Z"
        fill="#FFFFFF" />
  <!-- Sparkles above head -->
  <circle cx="160" cy="80" r="6" fill="#F4A261" />
  <circle cx="370" cy="60" r="5" fill="#F4A261" />
  <circle cx="420" cy="120" r="4" fill="#F4A261" />
</svg>