<!--
  Onboarding Panel C — Habit FINAL (base scene + 7時 wordmark overlay).
  Mirrors habit.svg + adds the 7時 time-block headline.
  Output: src/assets/source/illustrations/onboarding/habit-final.svg -> habit-final.png (320x480)

  Continuity lock: <symbol id="desk-silhouette"> block is IDENTICAL across all 6 onboarding files.
-->
<svg xmlns="http://www.w3.org/2000/svg" viewBox="0 0 320 480" width="320" height="480" role="img" aria-label="Onboarding Step 4 Habit final: same evening desk scene with lantern, open calendar, circled 10-minute block, and the 7時 time-of-day headline">
  <defs>
    <symbol id="desk-silhouette" viewBox="0 0 320 200">
      <rect x="8" y="8" width="80" height="48" rx="4" fill="#FFF4E6" stroke="#92400E" stroke-width="2" stroke-linecap="round"/>
      <line x1="48" y1="8" x2="48" y2="56" stroke="#92400E" stroke-width="2" stroke-linecap="round"/>
      <line x1="8" y1="32" x2="88" y2="32" stroke="#92400E" stroke-width="2" stroke-linecap="round"/>
      <rect x="0" y="120" width="320" height="20" fill="#64748B" stroke="#0F172A" stroke-width="4" stroke-linecap="round"/>
      <line x1="0" y1="140" x2="320" y2="140" stroke="#0F172A" stroke-width="2" stroke-linecap="round" opacity="0.5"/>
      <rect x="20" y="140" width="8" height="60" fill="#64748B" stroke="#0F172A" stroke-width="2" stroke-linecap="round"/>
      <rect x="292" y="140" width="8" height="60" fill="#64748B" stroke="#0F172A" stroke-width="2" stroke-linecap="round"/>
    </symbol>
  </defs>

  <!-- Evening warmth wash -->
  <ellipse cx="252" cy="190" rx="140" ry="120" fill="#FFF4E6" opacity="0.55"/>

  <!-- Shared desk silhouette -->
  <use href="#desk-silhouette" x="0" y="280" width="320" height="200"/>

  <!-- Calendar -->
  <g transform="translate(50 200)">
    <path d="M 0 20 L 220 16 L 220 156 L 0 160 Z" fill="#014F86" stroke="#0F172A" stroke-width="4" stroke-linecap="round" stroke-linejoin="round"/>
    <rect x="8" y="20" width="204" height="132" fill="#FFF4E6" stroke="#0F172A" stroke-width="2" stroke-linecap="round"/>
    <line x1="50" y1="40" x2="50" y2="140" stroke="#64748B" stroke-width="1.5" stroke-linecap="round"/>
    <line x1="100" y1="40" x2="100" y2="140" stroke="#64748B" stroke-width="1.5" stroke-linecap="round"/>
    <line x1="150" y1="40" x2="150" y2="140" stroke="#64748B" stroke-width="1.5" stroke-linecap="round"/>
    <line x1="200" y1="40" x2="200" y2="140" stroke="#64748B" stroke-width="1.5" stroke-linecap="round"/>
    <line x1="8" y1="65" x2="212" y2="63" stroke="#64748B" stroke-width="1.5" stroke-linecap="round"/>
    <line x1="8" y1="90" x2="212" y2="88" stroke="#64748B" stroke-width="1.5" stroke-linecap="round"/>
    <line x1="8" y1="115" x2="212" y2="113" stroke="#64748B" stroke-width="1.5" stroke-linecap="round"/>
    <ellipse cx="125" cy="76" rx="20" ry="14" fill="none" stroke="#F4A261" stroke-width="4" stroke-linecap="round"/>
    <text x="125" y="82" font-family="Noto Sans JP, sans-serif" font-size="14" font-weight="700" fill="#92400E" text-anchor="middle">10分</text>
  </g>

  <!-- Lantern -->
  <g transform="translate(252 160)">
    <ellipse cx="0" cy="20" rx="22" ry="26" fill="#F4A261" stroke="#92400E" stroke-width="3" stroke-linecap="round"/>
    <rect x="-12" y="-8" width="24" height="6" rx="2" fill="#92400E" stroke="#0F172A" stroke-width="2" stroke-linecap="round"/>
    <rect x="-10" y="44" width="20" height="6" rx="2" fill="#92400E" stroke="#0F172A" stroke-width="2" stroke-linecap="round"/>
    <line x1="0" y1="-8" x2="0" y2="-20" stroke="#0F172A" stroke-width="2" stroke-linecap="round"/>
    <line x1="-14" y1="0" x2="-14" y2="40" stroke="#92400E" stroke-width="1.5" opacity="0.6"/>
    <line x1="14" y1="0" x2="14" y2="40" stroke="#92400E" stroke-width="1.5" opacity="0.6"/>
    <line x1="0" y1="-4" x2="0" y2="44" stroke="#92400E" stroke-width="1.5" opacity="0.6"/>
  </g>

  <!-- Pen -->
  <g transform="translate(28 396) rotate(-18)">
    <rect x="0" y="0" width="56" height="6" rx="2" fill="#F4A261" stroke="#0F172A" stroke-width="2" stroke-linecap="round"/>
    <path d="M 56 0 L 64 3 L 56 6 Z" fill="#0F172A"/>
  </g>

  <!-- Kanji overlay: 7時 wordmark -->
  <g>
    <text x="160" y="100" font-family="Noto Sans JP, sans-serif" font-size="64" font-weight="900" fill="#0F172A" text-anchor="middle" opacity="0.18">7時</text>
    <text x="160" y="96" font-family="Noto Sans JP, sans-serif" font-size="64" font-weight="900" fill="#F4A261" text-anchor="middle">7時</text>
  </g>
</svg>
